<svg enable-background="new 0 0 140 140" height="512" viewBox="0 0 140 140" width="512" xmlns="http://www.w3.org/2000/svg"><circle cx="70" cy="70" fill="#344e5c" r="64"/><path d="m133.9199219 66.6899414c.0500488 1.0898438.0800781 2.2001953.0800781 3.3100586 0 35.3500977-28.6500244 64-64 64-1.1199951 0-2.2199707-.0302734-3.3300171-.0898438l-27.4500122-27.4501953v-77.0498047h57.4200439z" opacity=".1"/><path d="m43.363525 33.555496h57.414379v77.047485h-57.414379z" fill="#b0b1b5"/><path d="m39.222096 29.414066h57.414379v77.047485h-57.414379z" fill="#e6e7e8"/><path d="m43.363258 33.553726h49.127728v24.776098h-49.127728z" fill="#509fd7"/><path d="m43.3633194 52.7907104v5.5391388h31.6643906c-.9371567-.8800316-2.0587616-1.6980019-3.303215-2.4537926-3.410675-2.0707169-7.8200264-3.6341171-12.7824478-4.3277893-5.8228684-.8076095-11.3230706-.2795677-15.5787278 1.2424431z" fill="#d6b24e"/><path d="m54.4366188 58.3298378h38.0543938v-9.0904694c-4.9765472-2.2984619-11.463356-3.1060715-18.3339157-1.9050217-7.1677322 1.2424393-13.3698311 4.4209976-17.5540771 8.5416985-.8046189.7868843-1.5226441 1.6047936-2.166401 2.4537926z" fill="#ffd25a"/><circle cx="52.879" cy="41.165" fill="#feed32" r="5.112"/><g fill="#dad7dc"><path d="m43.363258 62.87537h49.127728v1.346933h-49.127728z"/><path d="m43.363258 67.937813h49.127728v1.346933h-49.127728z"/><path d="m43.363258 73.000252h49.127728v1.346933h-49.127728z"/><path d="m43.363258 78.062691h49.127728v1.346933h-49.127728z"/><path d="m43.363258 83.12513h24.563864v1.346933h-24.563864z"/><path d="m43.363258 88.187569h24.563864v1.346933h-24.563864z"/><path d="m43.363258 93.250008h24.563864v1.346933h-24.563864z"/><path d="m43.363258 98.312454h24.563864v1.346933h-24.563864z"/></g><circle cx="84.326" cy="91.494" fill="#dc594e" r="8.165"/><path d="m84.325798 85.461998c-3.3314896 0-6.032196 2.7006454-6.032196 6.0321274 0 3.3314896 2.7007065 6.032196 6.032196 6.032196 3.3314819 0 6.0321274-2.7007065 6.0321274-6.032196 0-3.331482-2.7006454-6.0321274-6.0321274-6.0321274zm0 10.7324524c-2.595932 0-4.700264-2.104393-4.700264-4.700325 0-2.5958633 2.104332-4.7002563 4.700264-4.7002563 2.5958633 0 4.7002563 2.104393 4.7002563 4.7002563.0000001 2.595932-2.1043929 4.700325-4.7002563 4.700325z" fill="#ed6b6c"/></svg>